HIERARCHY
ROOT SpineBase
{
  OFFSET 0.000000 0.000000 0.000000
  CHANNELS 6 Xposition Yposition Zposition Zrotation Xrotation Yrotation
  JOINT SpineMid
  {
    OFFSET -0.000000 24.928853 0.000000
    CHANNELS 3 Zrotation Xrotation Yrotation
    JOINT SpineShoulder
    {
      OFFSET -0.010422 18.645907 -0.478895
      CHANNELS 3 Zrotation Xrotation Yrotation
      JOINT Neck
      {
        OFFSET -0.075945 6.162485 -0.377839
        CHANNELS 3 Zrotation Xrotation Yrotation
        JOINT Head
        {
          OFFSET 0.346783 8.793565 -5.749412
          CHANNELS 3 Zrotation Xrotation Yrotation
          End Site
          {
            OFFSET 0 0 0
          }
        }
      }
      JOINT ShoulderLeft
      {
        OFFSET -9.083292 -10.648590 -8.049450
        CHANNELS 3 Zrotation Xrotation Yrotation
        JOINT ElbowLeft
        {
          OFFSET -4.532254 -22.953731 2.311770
          CHANNELS 3 Zrotation Xrotation Yrotation
          JOINT WristLeft
          {
            OFFSET -3.319266 -18.979730 1.117367
            CHANNELS 3 Zrotation Xrotation Yrotation
            JOINT HandLeft
            {
              OFFSET 0.934589 -5.472590 0.128941
              CHANNELS 3 Zrotation Xrotation Yrotation
              JOINT HandTipLeft
              {
                OFFSET -1.159071 -5.641554 -0.285728
                CHANNELS 3 Zrotation Xrotation Yrotation
                End Site
                {
                  OFFSET 0 0 0
                }
              }
              JOINT ThumbLeft
              {
                OFFSET 1.126248 -1.635450 -4.630053
                CHANNELS 3 Zrotation Xrotation Yrotation
                End Site
                {
                  OFFSET 0 0 0
                }
              }
            }
          }
        }
      }
      JOINT ShoulderRight
      {
        OFFSET 8.546442 -9.809268 -6.197145
        CHANNELS 3 Zrotation Xrotation Yrotation
        JOINT ElbowRight
        {
          OFFSET -4.046817 -18.390695 -4.443341
          CHANNELS 3 Zrotation Xrotation Yrotation
          JOINT WristRight
          {
            OFFSET -6.043308 22.432025 1.000814
            CHANNELS 3 Zrotation Xrotation Yrotation
            JOINT HandRight
            {
              OFFSET 1.376088 3.727653 -0.755018
              CHANNELS 3 Zrotation Xrotation Yrotation
              JOINT HandTipRight
              {
                OFFSET 0.293275 1.362456 1.090038
                CHANNELS 3 Zrotation Xrotation Yrotation
                End Site
                {
                  OFFSET 0 0 0
                }
              }
              JOINT ThumbRight
              {
                OFFSET 1.878511 -0.502976 -0.905560
                CHANNELS 3 Zrotation Xrotation Yrotation
                End Site
                {
                  OFFSET 0 0 0
                }
              }
            }
          }
        }
      }
    }
  }
  JOINT HipLeft
  {
    OFFSET -5.194159 -0.019208 -2.154973
    CHANNELS 3 Zrotation Xrotation Yrotation
    JOINT KneeLeft
    {
      OFFSET -5.225887 -22.475781 -3.818220
      CHANNELS 3 Zrotation Xrotation Yrotation
      JOINT AnkleLeft
      {
        OFFSET 0.227530 -20.119461 12.158868
        CHANNELS 3 Zrotation Xrotation Yrotation
        JOINT FootLeft
        {
          OFFSET 5.645008 -6.684755 -0.587386
          CHANNELS 3 Zrotation Xrotation Yrotation
          End Site
          {
            OFFSET 0 0 0
          }
        }
      }
    }
  }
  JOINT HipRight
  {
    OFFSET 2.772260 0.243969 -2.676095
    CHANNELS 3 Zrotation Xrotation Yrotation
    JOINT KneeRight
    {
      OFFSET -4.186330 -22.511796 -4.883168
      CHANNELS 3 Zrotation Xrotation Yrotation
      JOINT AnkleRight
      {
        OFFSET 5.135469 -20.388694 14.183217
        CHANNELS 3 Zrotation Xrotation Yrotation
        JOINT FootRight
        {
          OFFSET -0.602609 -9.585663 -0.197178
          CHANNELS 3 Zrotation Xrotation Yrotation
          End Site
          {
            OFFSET 0 0 0
          }
        }
      }
    }
  }
}
MOTION
Frames: 9
Frame Time: 0.033333
169.309448 55.924594 345.013540 2.781751 -6.415220 -2.030224 1.709768 0.690425 2.175989 0.945657 -0.780948 0.129684 -15.136246 33.055508 -4.408563 0.000000 0.000000 0.000000 14.378354 3.939237 0.781891 86.893834 32.475896 -58.058139 15.883521 -2.770084 40.474945 -24.358001 27.984142 -68.356810 0.000000 0.000000 0.000000 0.000000 0.000000 0.000000 -0.170458 21.443914 -5.642838 -10.026750 -30.995189 -2.527549 52.642657 43.080927 -27.344676 75.356249 -59.931265 40.205086 0.000000 0.000000 0.000000 0.000000 0.000000 0.000000 4.339562 -12.415336 6.236960 -6.751788 20.742634 -2.816197 -12.257951 29.480217 33.593881 0.000000 0.000000 0.000000 11.684995 -14.031233 4.357963 -20.698054 33.615432 4.261381 -24.172634 29.994971 3.616568 0.000000 0.000000 0.000000
169.559685 55.947690 344.692913 3.308601 -6.077932 -1.915721 1.636044 0.660412 2.100831 0.750960 -0.529425 0.141609 -17.283759 29.155825 -5.404239 0.000000 0.000000 0.000000 12.796552 3.627047 0.826418 83.782107 34.047653 -55.837951 18.906229 -2.702813 41.272309 -17.955231 25.539364 -66.886261 0.000000 0.000000 0.000000 0.000000 0.000000 0.000000 -4.436585 24.052130 -4.446528 -10.183311 -32.816245 -3.881824 55.255840 35.191621 -20.037158 70.631953 -64.297965 32.298312 0.000000 0.000000 0.000000 0.000000 0.000000 0.000000 3.802768 -13.302375 6.380439 -7.628561 21.485522 -3.157084 -9.589872 30.712451 34.434567 0.000000 0.000000 0.000000 9.211270 -15.214617 4.935043 -17.261399 37.530532 4.569070 -31.875281 24.746826 0.648199 0.000000 0.000000 0.000000
169.766849 56.085422 344.300978 2.874062 -5.280488 -1.835850 1.352499 0.110210 2.008499 0.355046 -0.259534 0.101423 -16.220976 25.886723 -5.716435 0.000000 0.000000 0.000000 9.010011 5.231382 0.154409 77.864827 37.143673 -48.568428 22.178409 -4.180121 40.783210 -18.127334 17.285568 -49.272568 0.000000 0.000000 0.000000 0.000000 0.000000 0.000000 -5.467645 23.474935 -3.409226 -4.779167 -38.902179 -4.807712 57.038742 38.054282 -22.625694 79.512745 -67.364849 42.702327 0.000000 0.000000 0.000000 0.000000 0.000000 0.000000 4.303087 -14.741902 6.521272 -9.023461 24.204185 -3.535548 -1.851471 47.514194 47.682527 0.000000 0.000000 0.000000 9.035520 -15.074079 4.709345 -16.105206 36.406188 4.284934 -40.699838 20.052459 -0.269547 0.000000 0.000000 0.000000
169.860329 56.204438 343.828626 1.538114 -4.168934 -0.665390 0.983616 -0.603112 0.761095 -0.081561 -0.101731 0.032357 -12.809191 20.660146 -5.457747 0.000000 0.000000 0.000000 4.866822 7.066683 -0.450364 71.700806 39.770987 -40.524536 9.107863 -6.842494 28.558791 -1.342699 -3.702631 -22.478276 0.000000 0.000000 0.000000 0.000000 0.000000 0.000000 -2.899036 19.826178 -2.980028 19.619621 -55.159760 2.425797 19.462397 44.529809 -2.094776 83.517332 -76.469457 37.142952 0.000000 0.000000 0.000000 0.000000 0.000000 0.000000 5.750400 -16.916797 5.594283 -11.035467 28.098996 -3.743085 10.209836 51.235308 45.970727 0.000000 0.000000 0.000000 9.979213 -15.227761 3.235454 -15.636889 28.889593 2.095848 -42.169176 10.125705 0.833683 0.000000 0.000000 0.000000
169.971891 56.208882 343.313290 -0.389315 -2.662626 1.539253 0.311587 -1.207428 -1.560389 -0.294997 -0.067740 -0.056094 -7.126501 13.033927 -4.250012 0.000000 0.000000 0.000000 1.151345 8.337218 -0.822655 59.678783 39.226340 -27.666253 8.307266 -1.597519 22.216498 -2.780345 -5.169390 -20.700752 0.000000 0.000000 0.000000 0.000000 0.000000 0.000000 2.263065 11.985035 -2.416033 87.411712 -59.452153 40.906953 -13.835787 -24.933367 79.872424 -11.091265 -28.126841 -94.448944 0.000000 0.000000 0.000000 0.000000 0.000000 0.000000 7.857185 -20.163791 3.809762 -14.359477 32.486339 -3.667178 36.507155 56.838894 35.851473 0.000000 0.000000 0.000000 11.679198 -17.674589 1.280744 -17.749893 28.960255 1.707647 -44.630254 2.102227 -0.689741 0.000000 0.000000 0.000000
170.163980 56.319826 342.783183 -2.519208 -0.981802 4.215027 -0.448398 -1.558698 -4.349406 -0.417972 -0.078036 -0.151080 0.656398 3.764559 -1.447315 0.000000 0.000000 0.000000 -1.678560 9.177530 -1.114048 49.333990 33.265373 -14.959619 -4.434237 -10.647691 12.972920 13.951936 -2.871373 -10.672881 0.000000 0.000000 0.000000 0.000000 0.000000 0.000000 3.290492 7.833714 -0.983378 122.524954 -44.188326 47.608434 -5.593377 -41.666706 132.489138 -20.756006 -20.213068 -111.705336 0.000000 0.000000 0.000000 0.000000 0.000000 0.000000 8.875838 -23.011637 1.388636 -16.252052 35.779170 -3.644689 54.323855 49.386491 25.354961 0.000000 0.000000 0.000000 12.835424 -20.575710 -0.975957 -19.149203 32.239071 2.370536 -39.386499 8.908683 0.971900 0.000000 0.000000 0.000000
170.342743 56.412181 342.393746 -3.095183 -0.934671 6.666149 -0.630492 -2.000898 -6.846098 -0.444154 -0.399130 -0.193494 3.278245 5.521044 -0.286404 0.000000 0.000000 0.000000 -0.275577 6.316783 -0.471614 33.563845 29.746354 -10.827264 0.215216 -10.922530 11.494578 20.670772 6.428550 -13.261235 0.000000 0.000000 0.000000 0.000000 0.000000 0.000000 3.179845 5.093947 0.027702 129.214753 -31.315581 32.332938 33.104576 -40.232741 -156.656168 -11.490220 9.599556 -155.814744 0.000000 0.000000 0.000000 0.000000 0.000000 0.000000 7.686480 -23.550063 -1.235880 -16.048989 37.642398 -3.834736 60.024252 40.440246 21.671551 0.000000 0.000000 0.000000 12.735244 -21.262914 -3.521628 -20.445117 33.123705 2.645171 -28.631349 21.544303 4.547703 0.000000 0.000000 0.000000
170.561980 56.307858 342.194694 -2.461696 -1.574700 9.191203 -0.597600 -2.076767 -9.350276 -0.188416 -0.453113 -0.162800 1.566973 9.238627 -0.802266 0.000000 0.000000 0.000000 3.290490 -0.553829 1.082815 15.144263 29.969207 -9.665621 7.366416 -8.408462 10.366240 22.153462 4.469684 -9.362983 0.000000 0.000000 0.000000 0.000000 0.000000 0.000000 1.796283 3.115120 0.693412 125.054100 -19.220910 12.674014 70.334168 -8.577643 -69.601054 -51.790385 -48.352440 -113.792901 0.000000 0.000000 0.000000 0.000000 0.000000 0.000000 4.121616 -22.204492 -4.268905 -12.874272 37.125896 -4.689570 59.747899 28.051933 18.362959 0.000000 0.000000 0.000000 10.420501 -21.167730 -6.241318 -19.337893 31.776869 1.721072 -17.078557 28.344423 5.152666 0.000000 0.000000 0.000000
170.777102 56.126657 342.107232 -2.600631 -2.235798 12.561657 -0.815867 -1.913242 -12.743890 0.165258 -1.069737 -0.191519 2.787482 11.932512 -0.159075 0.000000 0.000000 0.000000 3.889677 -3.790727 2.000228 6.253458 25.160415 -6.505840 16.669008 1.246470 8.055148 12.839414 0.934484 -7.811696 0.000000 0.000000 0.000000 0.000000 0.000000 0.000000 1.426964 2.069464 1.256840 122.570214 -7.227657 -3.690366 31.901978 42.294522 99.040011 -20.238879 22.019151 105.491468 0.000000 0.000000 0.000000 0.000000 0.000000 0.000000 2.370557 -20.865958 -8.117004 -12.452862 36.163499 -5.013555 47.183254 18.898403 19.540150 0.000000 0.000000 0.000000 10.090428 -22.200893 -9.743827 -20.452507 31.725097 1.849607 -7.573792 26.282500 3.680316 0.000000 0.000000 0.000000
